<svg id="Group_464" data-name="Group 464" xmlns="http://www.w3.org/2000/svg" width="27" height="27" viewBox="0 0 27 27">
  <g id="Group_465" data-name="Group 465">
    <path id="Path_57" data-name="Path 57" d="M5,0H22a5,5,0,0,1,5,5V22a5,5,0,0,1-5,5H5a5,5,0,0,1-5-5V5A5,5,0,0,1,5,0Z" fill="#363636"/>
    <g id="whatsapp" transform="translate(7 5.988)">
      <path id="Path_63" data-name="Path 63" d="M3.4,13.037a6.968,6.968,0,0,0,3.6,1,7.055,7.055,0,0,0,7.044-7.017A7.017,7.017,0,1,0,1,10.644l-1,3.4ZM.828,7.017a6.165,6.165,0,1,1,2.85,5.227l-.158-.1-2.3.679.679-2.3-.1-.158A6.194,6.194,0,0,1,.828,7.017Zm0,0" transform="translate(0 -0.001)" fill="#fff0ec"/>
      <path id="Path_64" data-name="Path 64" d="M121.223,95.849a6.2,6.2,0,0,0,4.972,4.972,3.149,3.149,0,0,0,2.6-.407l.327-.327a.873.873,0,0,0,0-1.234l-1.306-1.306a.873.873,0,0,0-1.234,0l-.326.326a.581.581,0,0,1-.777,0l-1.3-1.357-.006-.006a.513.513,0,0,1,0-.725l.326-.326a.872.872,0,0,0,0-1.234l-1.306-1.306a.874.874,0,0,0-1.234,0l-.326.327h0a3.044,3.044,0,0,0-.407,2.6Zm.988-2.02c.343-.335.324-.341.362-.341a.05.05,0,0,1,.036.015c1.376,1.383,1.321,1.3,1.321,1.342a.05.05,0,0,1-.015.036l-.327.326a1.334,1.334,0,0,0,0,1.884l1.3,1.358.006.006a1.4,1.4,0,0,0,1.942,0l.326-.326a.051.051,0,0,1,.072,0c1.376,1.383,1.321,1.3,1.321,1.342a.049.049,0,0,1-.015.036l-.327.326a2.432,2.432,0,0,1-1.866.181,5.377,5.377,0,0,1-4.318-4.318,2.432,2.432,0,0,1,.18-1.866Zm0,0" transform="translate(-117.806 -90.125)" fill="#fff0ec"/>
    </g>
  </g>
</svg>
