<svg xmlns="http://www.w3.org/2000/svg" width="27" height="27" viewBox="0 0 27 27">
  <g id="Group_453" data-name="Group 453" transform="translate(0 -0.224)">
    <rect id="Rectangle_29" data-name="Rectangle 29" width="27" height="27" rx="5" transform="translate(0 0.224)" fill="#ff2b00"/>
    <path id="Path_59" data-name="Path 59" d="M9.757,12.5H2.739A2.739,2.739,0,0,1,0,9.757V2.739A2.708,2.708,0,0,1,2.739,0H9.757A2.739,2.739,0,0,1,12.5,2.739V9.757A2.708,2.708,0,0,1,9.757,12.5ZM6.248,9.084A2.836,2.836,0,1,0,3.413,6.248,2.836,2.836,0,0,0,6.248,9.084ZM10.91,2.356a.865.865,0,1,1-.865-.865A.865.865,0,0,1,10.91,2.356Z" transform="translate(7 7)" fill="#fff" fill-rule="evenodd"/>
  </g>
</svg>
