<svg id="Group_454" data-name="Group 454" xmlns="http://www.w3.org/2000/svg" width="27" height="27" viewBox="0 0 27 27">
  <path id="Path_57" data-name="Path 57" d="M5,0H22a5,5,0,0,1,5,5V22a5,5,0,0,1-5,5H5a5,5,0,0,1-5-5V5A5,5,0,0,1,5,0Z" fill="#ff2b00"/>
  <path id="Path_58" data-name="Path 58" d="M7.5,0,5.632,0A3.291,3.291,0,0,0,2.174,3.564V5.205H.294A.3.3,0,0,0,0,5.5v2.38a.3.3,0,0,0,.294.3h1.88v6.006a.3.3,0,0,0,.294.3H4.922a.3.3,0,0,0,.294-.3V8.176h2.2a.294.294,0,0,0,.294-.3V5.5a.3.3,0,0,0-.294-.3h-2.2V3.813c0-.669.158-1.009,1.027-1.009H7.5a.3.3,0,0,0,.294-.3V.3A.3.3,0,0,0,7.5,0Z" transform="translate(10 6)" fill="#fff"/>
</svg>
