<svg id="Group_455" data-name="Group 455" xmlns="http://www.w3.org/2000/svg" width="27" height="27" viewBox="0 0 27 27">
  <path id="Path_57" data-name="Path 57" d="M5,0H22a5,5,0,0,1,5,5V22a5,5,0,0,1-5,5H5a5,5,0,0,1-5-5V5A5,5,0,0,1,5,0Z" fill="#ff2b00"/>
  <path id="telegram_1_" data-name="telegram (1)" d="M3.5,7.779l1.831,4.577L7.713,9.972l4.077,3.241L14.748.5,0,6.419ZM2.348,6.406l7.03-2.821L3.787,6.966Zm8.283-2.571L5.965,8.1,5.4,10.219,4.365,7.624ZM6.314,10.15,6.6,9.085l.436.347Zm4.945,1.538L7.013,8.314l6.392-5.848Zm0,0" transform="translate(5 7.851)" fill="#fff"/>
</svg>
